<?xml version="1.0" encoding="UTF-8"?>
<svg width="16px" height="17px" viewBox="0 0 16 17" version="1.1" xmlns="http://www.w3.org/2000/svg" xmlns:xlink="http://www.w3.org/1999/xlink">
    <!-- Generator: Sketch 51.2 (57519) - http://www.bohemiancoding.com/sketch -->
    <title>Facebook</title>
    <desc>Created with Sketch.</desc>
    <defs></defs>
    <g id="Page-1" stroke="none" stroke-width="1" fill="none" fill-rule="evenodd">
        <g id="Menu-Desktop" transform="translate(-486.000000, -631.000000)" fill="#BFBFBE">
            <g id="Container" transform="translate(321.000000, 118.000000)">
                <g id="Social" transform="translate(165.000000, 512.000000)">
                    <path d="M0.883077174,17.7885353 C0.395224219,17.7885353 0,17.3778516 0,16.8714276 L0,2.09003664 C0,1.58348372 0.395286302,1.17299339 0.883077174,1.17299339 L15.1169849,1.17299339 C15.6046516,1.17299339 16,1.58348372 16,2.09003664 L16,16.8714276 C16,17.3779161 15.6045895,17.7885353 15.1169849,17.7885353 L11.0397684,17.7885353 L11.0397684,11.3540818 L13.1195071,11.3540818 L13.4309184,8.84646107 L11.0397684,8.84646107 L11.0397684,7.24550368 C11.0397684,6.51948962 11.2339039,6.02473499 12.2364299,6.02473499 L13.5151038,6.02415474 L13.5151038,3.78131866 C13.293962,3.75075915 12.5349278,3.68248378 11.6518507,3.68248378 C9.80827807,3.68248378 8.54611842,4.851095 8.54611842,6.99715929 L8.54611842,8.84646107 L6.4610406,8.84646107 L6.4610406,11.3540818 L8.54611842,11.3540818 L8.54611842,17.7885353 L0.883077174,17.7885353 Z" id="Facebook"></path>
                </g>
            </g>
        </g>
    </g>
</svg>