<?xml version="1.0" encoding="UTF-8"?>
<svg width="19px" height="19px" viewBox="0 0 19 19" version="1.1" xmlns="http://www.w3.org/2000/svg" xmlns:xlink="http://www.w3.org/1999/xlink">
    <!-- Generator: Sketch 51.2 (57519) - http://www.bohemiancoding.com/sketch -->
    <title>Instagram</title>
    <desc>Created with Sketch.</desc>
    <defs></defs>
    <g id="Page-1" stroke="none" stroke-width="1" fill="none" fill-rule="evenodd">
        <g id="Menu-Desktop" transform="translate(-520.000000, -630.000000)" fill="#BFBFBE">
            <g id="Container" transform="translate(321.000000, 118.000000)">
                <g id="Social" transform="translate(165.000000, 512.000000)">
                    <path d="M43.1295566,0 C45.6089723,0 45.9198732,0.0109138465 46.8936355,0.0570530733 C47.8653685,0.103079398 48.5290272,0.263362406 49.1097331,0.497746668 C49.710081,0.739996425 50.2192134,1.0641753 50.7267875,1.59123882 C51.2343253,2.11833997 51.5464946,2.64705938 51.7798062,3.27050345 C52.0054712,3.87354992 52.1598163,4.56274051 52.2041375,5.57185734 C52.2485675,6.58308166 52.259077,6.90594335 52.259077,9.48078317 C52.259077,12.0555854 52.2485675,12.378447 52.2041375,13.3896714 C52.1598163,14.3987882 52.0054712,15.0879788 51.7798062,15.6910253 C51.5464946,16.3144693 51.2343253,16.8431887 50.7267875,17.3702899 C50.2192134,17.8973534 49.710081,18.2215323 49.1097331,18.4638197 C48.5290272,18.6981663 47.8653685,18.8584493 46.8936355,18.9044756 C45.9198732,18.9506149 45.6089723,18.9615287 43.1295566,18.9615287 C40.6501047,18.9615287 40.3392038,18.9506149 39.3654415,18.9044756 C38.3937085,18.8584493 37.7300498,18.6981663 37.1493439,18.4638197 C36.548996,18.2215323 36.0398636,17.8973534 35.5322895,17.3702899 C35.0247517,16.8431887 34.7125824,16.3144693 34.4793071,15.6910253 C34.2536058,15.0879788 34.0992607,14.3987882 34.0549395,13.3896714 C34.0105095,12.378447 34,12.0555854 34,9.48078317 C34,6.90594335 34.0105095,6.58308166 34.0549395,5.57185734 C34.0992607,4.56274051 34.2536058,3.87354992 34.4793071,3.27050345 C34.7125824,2.64705938 35.0247517,2.11833997 35.5322895,1.59123882 C36.0398636,1.0641753 36.548996,0.739996425 37.1493439,0.497746668 C37.7300498,0.263362406 38.3937085,0.103079398 39.3654415,0.0570530733 C40.3392038,0.0109138465 40.6501047,0 43.1295566,0 Z M43.1295566,1.70824278 C40.6918529,1.70824278 40.4030945,1.7179147 39.4404215,1.76352706 C38.5503005,1.80567708 38.0668984,1.96012683 37.745198,2.08996397 C37.3190547,2.26195113 37.0149306,2.46739489 36.6954771,2.79917582 C36.3759874,3.13091912 36.1781545,3.44674326 36.0125388,3.88928091 C35.8875117,4.22335752 35.7387837,4.72535682 35.6981952,5.64972198 C35.6542726,6.64943032 35.644959,6.94929766 35.644959,9.48078317 C35.644959,12.012231 35.6542726,12.3120984 35.6981952,13.3118067 C35.7387837,14.2361719 35.8875117,14.7381712 36.0125388,15.0722478 C36.1781545,15.5147855 36.3760236,15.8306096 36.6954771,16.1623529 C37.0149306,16.4941338 37.3190547,16.6995776 37.745198,16.8715647 C38.0668984,17.0014019 38.5503005,17.1558516 39.4404215,17.1980017 C40.4029858,17.243614 40.6916717,17.2532859 43.1295566,17.2532859 C45.5674053,17.2532859 45.8561275,17.243614 46.8186555,17.1980017 C47.7087765,17.1558516 48.1921786,17.0014019 48.513879,16.8715647 C48.9400223,16.6995776 49.2441464,16.4941338 49.5635999,16.1623529 C49.8830896,15.8306096 50.0809225,15.5147855 50.2465382,15.0722478 C50.3715653,14.7381712 50.5202933,14.2361719 50.5608818,13.3118067 C50.6048044,12.3120984 50.614118,12.012231 50.614118,9.48078317 C50.614118,6.94929766 50.6048044,6.64943032 50.5608818,5.64972198 C50.5202933,4.72535682 50.3715653,4.22335752 50.2465382,3.88928091 C50.0809225,3.44674326 49.8830896,3.13091912 49.5635999,2.79917582 C49.2441464,2.46739489 48.9400223,2.26195113 48.513879,2.08996397 C48.1921786,1.96012683 47.7087765,1.80567708 46.8186555,1.76352706 C45.8559825,1.7179147 45.5672241,1.70824278 43.1295566,1.70824278 Z M43.1295566,4.61226679 C45.7187425,4.61226679 47.817677,6.7919501 47.817677,9.48078317 C47.817677,12.1695786 45.7187425,14.3492619 43.1295566,14.3492619 C40.5403345,14.3492619 38.4414,12.1695786 38.4414,9.48078317 C38.4414,6.7919501 40.5403345,4.61226679 43.1295566,4.61226679 Z M43.1295566,12.6410191 C44.810248,12.6410191 46.172718,11.226133 46.172718,9.48078317 C46.172718,7.73539568 44.810248,6.32050957 43.1295566,6.32050957 C41.448829,6.32050957 40.086359,7.73539568 40.086359,9.48078317 C40.086359,11.226133 41.448829,12.6410191 43.1295566,12.6410191 Z M49.0984626,4.41991966 C49.0984626,5.04825614 48.6079574,5.55759407 48.0028984,5.55759407 C47.3978756,5.55759407 46.9073704,5.04825614 46.9073704,4.41991966 C46.9073704,3.79158317 47.3978756,3.28220761 48.0028984,3.28220761 C48.6079574,3.28220761 49.0984626,3.79158317 49.0984626,4.41991966 Z" id="Instagram"></path>
                </g>
            </g>
        </g>
    </g>
</svg>